<svg xmlns="http://www.w3.org/2000/svg" viewBox="0 0 200 200">
  <defs>
    <linearGradient id="grad" x1="0" y1="0" x2="1" y2="1">
      <stop offset="0%" stop-color="#3b82f6"/>
      <stop offset="100%" stop-color="#1d4ed8"/>
    </linearGradient>
    <linearGradient id="grad2" x1="0" y1="0" x2="0" y2="1">
      <stop offset="0%" stop-color="#60a5fa"/>
      <stop offset="100%" stop-color="#3b82f6"/>
    </linearGradient>
  </defs>
  
  <!-- Background circle -->
  <circle cx="100" cy="100" r="96" fill="url(#grad)"/>
  
  <!-- Left person -->
  <circle cx="72" cy="68" r="16" fill="#fff" opacity="0.95"/>
  <path d="M52 110 Q52 92 72 92 Q92 92 92 110 L92 120 Q92 124 88 124 L56 124 Q52 124 52 120 Z" fill="#fff" opacity="0.95"/>
  
  <!-- Right person -->
  <circle cx="128" cy="68" r="16" fill="#fff" opacity="0.95"/>
  <path d="M108 110 Q108 92 128 92 Q148 92 148 110 L148 120 Q148 124 144 124 L112 124 Q108 124 108 120 Z" fill="#fff" opacity="0.95"/>
  
  <!-- Connection arc -->
  <path d="M72 105 Q100 130 128 105" stroke="#fff" stroke-width="4" fill="none" stroke-linecap="round" opacity="0.7"/>
  
  <!-- Heart/community symbol -->
  <path d="M100 140 L94 134 Q84 124 84 116 Q84 110 90 110 Q96 110 100 116 Q104 110 110 110 Q116 110 116 116 Q116 124 106 134 Z" fill="#fff" opacity="0.85"/>
</svg>
